Coordinates
version=1
nRows=30
nColumns=19
inDegrees=yes

Units are S.I. units (second, meters, Newtons, ...)
If the header above contains a line with 'inDegrees', this indicates whether rotational values are in degrees (yes) or radians (no).

endheader
time	pelvis_to_ground_rx	pelvis_to_ground_ry	pelvis_to_ground_rz	pelvis_to_ground_tx	pelvis_to_ground_ty	pelvis_to_ground_tz	left_hip_abduction	left_hip_rotation	left_hip_flexion	left_knee_flexion	left_ankle_flexion	left_subtalar_angle	right_hip_abduction	right_hip_rotation	right_hip_flexion	right_knee_flexion	right_ankle_flexion	right_subtalar_angle
      2.98000000	     87.21622412	     13.24116078	     -4.94737726	      1.49157490	     -0.71446933	      0.72557995	     -0.43419252	     -0.88355199	      5.56291495	    -55.28153324	     -7.53927548	     -6.85747442	      5.45893824	      0.49170240	     18.73759359	    -10.76219915	     -3.41559960	     -7.22585641
      2.99000000	     86.51256700	     12.05300985	     -5.20482408	      1.50302436	     -0.71482006	      0.72769150	     -0.21683412	      0.75103078	      7.27302076	    -57.61934328	     -8.01512248	     -6.96849903	      6.30847377	      1.25280393	     17.39311586	     -9.20914574	     -3.45286811	     -6.82478084
      3.00000000	     85.92653589	     10.86083441	     -5.44625036	      1.51419841	     -0.71522576	      0.72966802	     -0.14820425	      2.41558540	      9.04895984	    -59.85224570	     -8.35280357	     -7.08575548	      7.03169823	      1.89240799	     16.03790150	     -7.68153777	     -3.55250802	     -6.32662817
      3.01000000	     85.45694337	      9.68491464	     -5.66725546	      1.52511908	     -0.71569541	      0.73144677	     -0.21630082	      4.08749928	     10.88700159	    -61.95538269	     -8.46032576	     -7.21609698	      7.62314573	      2.46099917	     14.70091891	     -6.24731826	     -3.68459455	     -5.78197919
      3.02000000	     85.09164976	      8.55271522	     -5.87792861	      1.53579723	     -0.71622687	      0.73298160	     -0.40438372	      5.72829833	     12.80502067	    -63.91940335	     -8.31494962	     -7.35749988	      8.09192650	      2.99632521	     13.43095387	     -4.97731031	     -3.83070298	     -5.19744494
      3.03000000	     84.81703971	      7.48392135	     -6.07547166	      1.54624788	     -0.71680802	      0.73424251	     -0.69565121	      7.30689145	     14.80234952	    -65.73228275	     -7.90843720	     -7.51308193	      8.45259309	      3.52334815	     12.25445755	     -3.92471489	     -3.95018509	     -4.62483312
      3.04000000	     84.61466820	      6.49398297	     -6.27407128	      1.55649624	     -0.71741403	      0.73521528	     -1.07403116	      8.79088054	     16.89326491	    -67.38665752	     -7.25216419	     -7.69081000	      8.72616355	      4.05394246	     11.20493809	     -3.12255003	     -4.00943798	     -4.10008027
      3.05000000	     84.43952223	      5.62165593	     -6.37616695	      1.56658163	     -0.71805437	      0.73582972	     -1.46644942	     10.14822038	     18.98335643	    -68.90909132	     -5.79252934	     -7.83182870	      9.00439154	      4.37732070	     10.24058875	     -2.66492860	     -3.90876294	     -3.38331309
      3.06000000	     84.32878603	      4.83018111	     -6.60495265	      1.57647984	     -0.71865542	      0.73620824	     -1.96896474	     11.34905730	     21.28390218	    -70.24765469	     -5.27242961	     -7.97993530	      9.16494152	      4.93989244	      9.49811647	     -2.40557516	     -3.76246946	     -3.18420901
      3.07000000	     84.18925273	      4.17813701	     -6.71485699	      1.58628024	     -0.71927017	      0.73622997	     -2.41253400	     12.36179060	     23.54132969	    -71.45522392	     -3.92221729	     -8.38281286	      9.38759977	      5.37275396	      8.76061814	     -2.38749207	     -3.39805025	     -3.00799945
      3.08000000	     84.10338799	      3.59105145	     -6.93456888	      1.59595236	     -0.71977659	      0.73601920	     -2.95244803	     13.20618247	     25.96317472	    -72.47083003	     -3.33721811	     -8.67792658	      9.53454606	      5.85845883	      8.25052512	     -2.60031417	     -3.17548144	     -2.96582835
      3.09000000	     83.98914349	      3.12414716	     -7.12668357	      1.60557177	     -0.72023814	      0.73552842	     -3.44645745	     13.83068329	     28.39994430	    -73.32897413	     -2.48777672	     -9.18232549	      9.72442276	      6.30302040	      7.77273886	     -2.93462600	     -2.79103624	     -3.02128331
      3.10000000	     83.81362453	      2.79352462	     -7.18384735	      1.61519606	     -0.72067120	      0.73474115	     -3.81072905	     14.22169466	     30.71508915	    -74.03294489	     -1.28669760	    -10.03127060	     10.01733849	      6.59334774	      7.19326322	     -3.34477825	     -2.06799301	     -3.19169547
      3.11000000	     83.66335053	      2.49531107	     -7.30440574	      1.62480603	     -0.72096351	      0.73378337	     -4.19990779	     14.46202833	     33.08299082	    -74.51559454	     -0.56938250	    -10.76824658	     10.27341065	      6.87420402	      6.71553167	     -3.83911331	     -1.42739590	     -3.30539233
      3.12000000	     83.50784050	      2.26131355	     -7.47831697	      1.63444237	     -0.72114819	      0.73269362	     -4.55956662	     14.50948982	     35.47496036	    -74.77185740	     -0.21836118	    -11.16589302	     10.52790100	      7.11959012	      6.27934950	     -4.31037586	     -1.06995758	     -3.38572766
      3.13000000	     83.33444609	      2.07881708	     -7.62452756	      1.64416050	     -0.72123442	      0.73147660	     -4.83596435	     14.38808708	     37.77327644	    -74.78599960	      0.26258222	    -11.71169517	     10.80189594	      7.33182612	      5.77848794	     -4.72931873	     -0.50440614	     -3.53644444
      3.14000000	     83.12616417	      1.93929743	     -7.61570081	      1.65400998	     -0.72124334	      0.73012428	     -4.96175255	     14.13639887	     39.81661981	    -74.54959282	      0.79243226	    -12.63784496	     11.13238498	      7.42142670	      5.08096285	     -5.09780736	      0.49376322	     -3.67171589
      3.15000000	     82.94708283	      1.77935541	     -7.69966176	      1.66397130	     -0.72110547	      0.72878467	     -5.08016346	     13.79761352	     41.83846088	    -73.99904792	      0.91314166	    -13.23046433	     11.39751536	      7.54177236	      4.43711858	     -5.40297186	      1.20041042	     -3.58750856
      3.16000000	     82.78758516	      1.59924560	     -7.79401157	      1.67409401	     -0.72083942	      0.72745994	     -5.15268139	     13.40506948	     43.73030271	    -73.13424253	      0.98726969	    -13.34829095	     11.61559953	      7.69201566	      3.74580581	     -5.61984934	      1.44351592	     -3.57710477
      3.17000000	     82.64014591	      1.38371388	     -7.85791584	      1.68440523	     -0.72046029	      0.72615537	     -5.15383274	     12.99009871	     45.42240845	    -71.94467642	      1.07727547	    -13.44349703	     11.79923883	      7.89713871	      2.97063338	     -5.77477208	      1.84048286	     -3.59066380
      3.18000000	     82.51417040	      1.13070337	     -7.88437318	      1.69492773	     -0.71997219	      0.72488320	     -5.09019458	     12.56261027	     46.88406155	    -70.42840139	      1.10417836	    -13.43084199	     11.94000473	      8.13001562	      2.11830916	     -5.89389025	      2.26055563	     -3.56800250
      3.19000000	     82.42236789	      0.83391030	     -7.88708410	      1.70568511	     -0.71937050	      0.72366192	     -4.97772023	     12.13442462	     48.10482451	    -68.58425803	      1.05444124	    -13.29263924	     12.02143055	      8.40646500	      1.20962784	     -5.99350995	      2.58539569	     -3.50130288
      3.20000000	     82.36702433	      0.48610925	     -7.85998117	      1.71669453	     -0.71865631	      0.72248363	     -4.81604703	     11.71111329	     49.05815105	    -66.43205631	      0.93477729	    -13.04732388	     12.04543462	      8.74951902	      0.25220162	     -6.10939764	      2.84559459	     -3.40808140
      3.21000000	     82.37249561	      0.04124514	     -7.74857365	      1.72796514	     -0.71780898	      0.72129993	     -4.65093125	     11.39432013	     49.69166869	    -64.01784120	      0.58235369	    -12.22407975	     11.98752480	      9.10405512	     -0.74141568	     -6.38877539	      3.35758216	     -3.13280046
      3.22000000	     82.36537879	     -0.41110507	     -7.63308541	      1.73953713	     -0.71689018	      0.72011900	     -4.35629310	     10.98551699	     50.05788738	    -61.39488957	      0.44769498	    -11.84747731	     11.94716182	      9.59883059	     -1.77836221	     -6.65422956	      3.46404158	     -2.95239250
      3.23000000	     82.40754302	     -0.91530455	     -7.41137939	      1.75141815	     -0.71587467	      0.71887591	     -4.02079733	     10.60609110	     50.07035603	    -58.63060080	      0.07514647	    -11.22691616	     11.86249433	     10.05854309	     -2.86544476	     -7.09818424	      3.62432341	     -2.76891122
      3.24000000	     82.52070655	     -1.47586127	     -7.21309576	      1.76359625	     -0.71471718	      0.71756093	     -3.69785434	     10.22251482	     49.87168442	    -55.79653398	     -0.38802344	    -10.10864732	     11.66822673	     10.38120383	     -3.78701101	     -7.85106197	      3.92630644	     -2.40656249
      3.25000000	     82.63451726	     -2.03724721	     -6.81327066	      1.77611958	     -0.71354861	      0.71608998	     -3.24529821	      9.78887551	     49.25774375	    -53.03542038	     -0.62842079	     -9.65664540	     11.54106142	     10.74844520	     -4.88997438	     -8.74725565	      4.02294872	     -2.24566861
      3.26000000	     82.80871989	     -2.59747956	     -6.40922134	      1.78891966	     -0.71229753	      0.71448961	     -2.77761516	      9.25339117	     48.45284024	    -50.40729398	     -1.06801145	     -9.06581418	     11.34704154	     10.97869802	     -5.84744245	     -9.96451036	      4.17146635	     -2.05759171
      3.27000000	     83.03665419	     -3.13949901	     -6.05396512	      1.80197074	     -0.71099327	      0.71278089	     -2.29751787	      8.57856680	     47.54067965	    -48.00140460	     -1.56612152	     -8.35762118	     11.10131036	     11.14130142	     -6.61904338	    -11.47115906	      4.44619904	     -1.66167311
